HIERARCHY
ROOT Hips
{
  OFFSET 0 0 0
  CHANNELS 6 Xposition Yposition Zposition Zrotation Yrotation Xrotation
  JOINT LeftThigh
  {
    OFFSET 8.409438 0 -5.917753
    CHANNELS 3 Zrotation Yrotation Xrotation
    JOINT LeftLeg
    {
      OFFSET 0 0 -42.358652
      CHANNELS 3 Zrotation Yrotation Xrotation
      JOINT LeftFoot
      {
        OFFSET 0 0 -39.357303
        CHANNELS 3 Zrotation Yrotation Xrotation
      }
    }
  }
  JOINT RightThigh
  {
    OFFSET -8.409438 0 -5.917753
    CHANNELS 3 Zrotation Yrotation Xrotation
    JOINT RightLeg
    {
      OFFSET 0 0 -42.358652
      CHANNELS 3 Zrotation Yrotation Xrotation
      JOINT RightFoot
      {
        OFFSET 0 0 -39.357303
        CHANNELS 3 Zrotation Yrotation Xrotation
      }
    }
  }
  JOINT SpineLow
  {
    OFFSET 0 0 4.719101
    CHANNELS 3 Zrotation Yrotation Xrotation
    JOINT SpineMid
    {
      OFFSET 0 0 12.899191
      CHANNELS 3 Zrotation Yrotation Xrotation
      JOINT Chest
      {
        OFFSET 0 0 12.899191
        CHANNELS 3 Zrotation Yrotation Xrotation
        JOINT LeftShoulder
        {
          OFFSET 7.550562 1.41573 9.438202
          CHANNELS 3 Zrotation Yrotation Xrotation
          JOINT LeftArm
          {
            OFFSET 9.155056 0 4.247191
            CHANNELS 3 Zrotation Yrotation Xrotation
            JOINT LeftForearm
            {
              OFFSET 0 0 25.771955
              CHANNELS 3 Zrotation Yrotation Xrotation
              JOINT LeftHand
              {
                OFFSET 0 0 25.197169
                CHANNELS 3 Zrotation Yrotation Xrotation
              }
            }
          }
        }
        JOINT RightShoulder
        {
          OFFSET -7.550562 1.41573 9.438202
          CHANNELS 3 Zrotation Yrotation Xrotation
          JOINT RightArm
          {
            OFFSET -9.155056 0 4.247191
            CHANNELS 3 Zrotation Yrotation Xrotation
            JOINT RightForearm
            {
              OFFSET 0 0 -25.771955
              CHANNELS 3 Zrotation Yrotation Xrotation
              JOINT RightHand
              {
                OFFSET 0 0 -25.197169
                CHANNELS 3 Zrotation Yrotation Xrotation
              }
            }
          }
        }
        JOINT Neck
        {
          OFFSET 0 0 15.101124
          CHANNELS 3 Zrotation Yrotation Xrotation
          JOINT Head
          {
            OFFSET 0 0 11.325843
            CHANNELS 3 Zrotation Yrotation Xrotation
            End Site
            {
              OFFSET 0 0 14.157303
            }
          }
        }
      }
    }
  }
}
MOTION
Frames: 8
Frame Time: 0.0
0.0  93.25843  0.0  -4.717959  6.091307  -88.12315  4.686776  -22.057834  -16.592574  -1.827309  1.580388  24.074365  9.553777  0.865838  7.629396  -28.123621  -3.618467  -18.967441  -17.149038  20.274982  24.89523  17.933211  8.144918  -0.340647  6.599172  -0.084333  -1.066383  18.037857  0.060914  -2.912863  18.037858  0.060914  -2.912864  9.227862  17.889761  9.696741  165.074618  22.665277  173.668272  -11.836474  31.140141  98.156682  75.247582  -55.630926  -30.749258  13.46519  2.98521  17.932705  176.56303  57.139833  161.591242  -37.367668  1.107162  -132.339277  90.99152  27.047323  13.090101  -32.238877  -2.934618  6.031813  -24.147873  -2.528227  4.382252  
0.0  93.25843  0.0  -4.66633  4.951958  -88.382918  5.292062  -22.018937  -16.049381  -1.926078  1.649234  24.033142  9.593189  0.923342  7.563855  -27.020008  -3.621887  -19.096722  -17.116108  20.506883  25.212952  17.956314  8.151557  -0.3089  6.576227  -0.122113  -0.988246  17.977002  -0.063601  -2.71141  17.977002  -0.063601  -2.711409  9.120233  18.043487  9.70142  165.027599  22.665171  173.850274  -11.52983  30.082395  98.406594  75.354031  -54.311078  -31.282866  13.319637  2.792577  17.881169  177.024077  58.760643  161.612715  -38.196628  1.435165  -131.690101  89.663493  27.173821  13.904675  -31.723466  -2.901985  5.709366  -23.763015  -2.481434  4.143446  
0.0  93.25843  0.0  -4.554132  3.790206  -88.614366  6.18662  -21.940082  -15.254817  -1.419749  1.717233  24.297292  8.754149  0.949217  6.699611  -26.091427  -3.547803  -19.21458  -16.874348  20.568051  25.488373  18.118365  8.212563  -0.257984  6.520533  -0.151091  -0.897973  17.826046  -0.168644  -2.474598  17.826046  -0.168644  -2.474598  9.138247  18.159993  9.505568  164.935497  22.545407  174.034185  -11.250647  28.795225  98.688362  75.345688  -52.555705  -31.665888  13.423813  2.557741  17.826979  177.338968  60.621096  161.563175  -39.177519  1.911305  -130.967832  88.26375  27.234019  14.731942  -31.010911  -2.86916  5.421457  -23.230171  -2.434979  3.931405  
0.0  93.25843  0.0  -4.509236  2.592638  -88.727327  6.645271  -22.015146  -14.736455  -1.01688  1.763481  24.190972  8.801098  0.968107  6.614424  -25.345965  -3.582109  -19.343322  -16.57689  20.522295  25.628268  18.128259  8.178935  -0.229239  6.440107  -0.186111  -0.820233  17.607482  -0.287203  -2.273126  17.60748  -0.287203  -2.273126  9.203667  18.390199  9.268781  164.947989  22.489883  174.320383  -10.938445  27.371606  99.035517  75.134488  -50.327474  -31.719176  13.388991  2.394779  17.663338  177.547736  62.684941  161.106677  -40.317745  2.519051  -130.17303  86.814687  27.202167  15.516688  -30.229846  -2.863648  5.117226  -22.645682  -2.408345  3.705979  
0.0  93.25843  0.0  -4.4285  1.196139  -88.945905  7.184937  -22.038086  -14.046475  -0.399976  1.725131  24.097972  8.60126  0.968945  6.391257  -24.550439  -3.543271  -19.33736  -16.146137  20.420717  25.66592  18.486104  8.229956  -0.155373  6.358222  -0.229839  -0.723745  17.384894  -0.433859  -2.022768  17.384895  -0.433859  -2.022767  9.381105  18.651705  9.028782  165.042418  22.465059  174.684156  -10.610812  25.821357  99.458671  74.742583  -47.606076  -31.295767  13.525648  2.180381  17.55552  178.698898  64.883773  159.090277  -40.874142  4.633522  -127.339195  85.359844  27.067307  16.150858  -29.335185  -2.832523  4.832452  -21.976234  -2.363241  3.496962  
0.0  93.25843  0.0  -4.39615  -0.301455  -89.159083  7.74172  -22.150713  -13.354295  0.310511  1.639883  23.997788  8.446785  0.973926  6.279523  -23.781682  -3.579772  -19.267062  -15.717079  20.272076  25.545952  18.58473  8.120355  -0.117637  6.270825  -0.279025  -0.637781  17.147099  -0.592163  -1.801925  17.147099  -0.592163  -1.801925  9.533593  18.922165  8.810256  165.363873  22.540157  175.160136  -10.196257  24.080507  99.939699  74.280737  -44.484369  -30.314003  13.461654  1.97946  17.379973  177.85876  67.336143  157.33604  -42.143964  5.492613  -126.473717  83.873071  26.809304  16.599446  -28.420753  -2.800627  4.571351  -21.291863  -2.319378  3.305853  
0.0  93.25843  0.0  -4.347492  -1.854132  -89.358474  8.272265  -22.214324  -12.675567  0.951754  1.521979  23.882325  8.27907  0.97855  6.187357  -22.947334  -3.631313  -19.15005  -15.016481  20.031213  25.435114  18.920949  8.011193  -0.031443  6.187111  -0.315907  -0.559769  16.918745  -0.714421  -1.599095  16.918745  -0.714421  -1.599095  9.586254  19.158934  8.625277  165.90512  22.786  175.785326  -9.637305  22.141269  100.45482  74.239492  -40.962012  -28.998842  13.251767  1.6884  17.158737  176.05414  69.943604  154.496444  -43.342953  6.388474  -125.559776  82.332038  26.420043  16.86101  -27.530633  -2.784886  4.338154  -20.625439  -2.289921  3.134865  
0.0  93.25843  0.0  -4.301136  -3.482523  -89.553164  8.81984  -22.254842  -11.976877  1.469229  1.410127  23.740199  8.142183  0.97448  6.112492  -22.154185  -3.723975  -18.996634  -14.508975  19.737038  25.118239  19.007791  7.861267  0.036541  6.111908  -0.347772  -0.489881  16.713356  -0.820345  -1.416799  16.713357  -0.820345  -1.416799  9.528092  19.429076  8.510272  166.645191  23.238411  176.566513  -8.853642  19.834529  101.027622  74.843944  -37.024141  -27.518551  12.803058  1.451839  16.94357  172.916817  72.739701  150.080874  -44.402055  7.284806  -124.585356  80.763268  25.899697  16.885114  -26.666425  -2.774264  4.116193  -19.978357  -2.265696  2.97201  
